<svg width="224.301" height="55.605" viewBox="0 0 224.301 55.605" xmlns="http://www.w3.org/2000/svg"><g id="svgGroup" stroke-linecap="round" fill-rule="evenodd" font-size="9pt" stroke="#000000" stroke-width="0.05mm" fill="#000000" style="stroke:#000000;stroke-width:0.05mm;fill:#000000"><path d="M 52.451 35.654 L 57.701 30.854 A 1.119 1.119 0 0 1 58.232 30.498 L 58.751 29.454 A 230.124 230.124 0 0 0 59.737 27.426 Q 61.651 23.432 61.651 22.904 Q 61.651 22.204 62.351 22.204 Q 63.301 22.204 63.301 23.204 Q 63.301 23.554 62.851 24.704 Q 62.401 25.854 61.701 27.304 A 86.502 86.502 0 0 1 60.728 29.349 Q 60.259 30.297 59.874 30.995 A 23.609 23.609 0 0 1 59.701 31.304 Q 61.201 29.554 62.751 28.004 Q 64.301 26.454 65.901 25.054 A 36.188 36.188 0 0 1 68.122 23.25 Q 70.3 21.634 71.887 21.131 A 4.382 4.382 0 0 1 73.201 20.904 A 1.925 1.925 0 0 1 74.45 21.26 A 1.576 1.576 0 0 1 74.951 22.554 A 4.095 4.095 0 0 1 74.792 23.538 Q 74.314 25.366 72.401 29.304 Q 69.851 34.604 69.851 36.004 A 0.563 0.563 0 0 0 70.164 36.636 A 0.495 0.495 0 0 0 70.301 36.654 Q 70.451 36.654 70.776 36.529 Q 71.101 36.404 71.451 36.404 Q 72.301 36.404 72.301 37.204 A 0.898 0.898 0 0 1 71.523 38.045 Q 71.056 38.189 70.309 38.202 A 8.738 8.738 0 0 1 70.151 38.204 A 2.214 2.214 0 0 1 68.911 37.905 A 1.226 1.226 0 0 1 68.701 37.729 Q 68.251 37.254 68.251 36.454 A 7.494 7.494 0 0 1 68.479 34.759 Q 68.901 32.969 70.11 30.376 A 49.592 49.592 0 0 1 70.701 29.154 A 94.811 94.811 0 0 0 71.744 27.03 Q 73.066 24.241 73.146 23.403 A 1.055 1.055 0 0 0 73.151 23.304 A 0.476 0.476 0 0 0 72.701 22.704 A 2.726 2.726 0 0 0 71.649 22.98 Q 70.654 23.419 69.151 24.554 Q 66.501 26.554 63.851 29.154 A 43.79 43.79 0 0 0 59.71 33.874 A 51.424 51.424 0 0 0 58.801 35.104 L 55.301 39.954 Q 55.001 40.404 54.501 40.404 Q 53.701 40.404 53.701 39.754 Q 53.701 39.504 53.901 39.129 Q 54.101 38.754 54.251 38.504 L 56.173 34.639 A 56.595 56.595 0 0 1 56.101 34.704 A 55.245 55.245 0 0 1 54.28 36.324 A 34.355 34.355 0 0 1 53.701 36.804 Q 52.651 37.654 51.751 38.304 A 32.406 32.406 0 0 1 49.782 39.599 A 19.017 19.017 0 0 1 48.751 40.179 Q 47.451 40.854 46.751 40.854 Q 44.312 40.854 44.301 37.336 A 10.231 10.231 0 0 1 44.301 37.304 A 11.232 11.232 0 0 1 44.555 35.059 A 20.658 20.658 0 0 1 45.201 32.704 A 52.847 52.847 0 0 1 43.024 35.1 Q 38.504 39.754 35.701 39.754 A 2.853 2.853 0 0 1 33.923 39.238 Q 33.207 38.691 32.969 37.566 A 6.132 6.132 0 0 1 32.851 36.304 A 11.89 11.89 0 0 1 33.052 34.268 A 20.387 20.387 0 0 1 33.276 33.179 Q 33.701 31.354 34.426 29.404 Q 35.151 27.454 36.001 25.754 A 17.864 17.864 0 0 1 37.17 23.723 A 10.61 10.61 0 0 1 37.701 23.004 Q 38.001 22.654 38.451 22.654 Q 38.701 22.654 38.951 22.829 Q 39.201 23.004 39.201 23.354 A 1.536 1.536 0 0 1 38.943 24.054 A 4.626 4.626 0 0 1 38.851 24.204 Q 36.926 27.369 35.953 29.839 A 20.32 20.32 0 0 0 35.651 30.654 A 21.373 21.373 0 0 0 34.79 33.42 Q 34.462 34.836 34.452 36.027 A 8.897 8.897 0 0 0 34.451 36.104 A 4.7 4.7 0 0 0 34.593 37.371 A 1.001 1.001 0 0 0 35.551 38.254 A 2.759 2.759 0 0 0 36.664 37.952 A 7.385 7.385 0 0 0 37.401 37.554 Q 38.551 36.854 39.776 35.829 A 34.082 34.082 0 0 0 41.671 34.131 A 24.003 24.003 0 0 0 41.901 33.904 Q 44.401 31.254 46.401 28.254 Q 47.301 26.854 48.026 25.529 Q 48.751 24.204 49.351 22.754 A 7.324 7.324 0 0 1 49.765 21.946 A 2.613 2.613 0 0 1 49.776 21.929 Q 49.951 21.654 50.301 21.654 A 1.137 1.137 0 0 1 51.178 21.936 A 0.746 0.746 0 0 1 51.351 22.454 Q 51.351 22.954 51.001 23.154 A 127.136 127.136 0 0 0 49.333 26.665 Q 46.315 33.295 45.951 36.569 A 7.587 7.587 0 0 0 45.901 37.404 A 5.73 5.73 0 0 0 45.987 38.513 A 1.645 1.645 0 0 0 46.101 38.879 Q 46.301 39.304 46.801 39.304 A 2.524 2.524 0 0 0 47.729 39.064 A 9.745 9.745 0 0 0 48.976 38.404 Q 50.451 37.504 52.451 35.654 Z M 139.201 42.854 Q 138.401 42.854 138.401 42.054 A 4.02 4.02 0 0 1 138.567 41.061 A 10.869 10.869 0 0 1 138.751 40.454 Q 137.901 40.454 137.901 39.704 Q 137.901 38.804 139.351 38.904 A 35.302 35.302 0 0 1 140.062 37.305 Q 142.013 33.164 146.804 24.906 A 530.894 530.894 0 0 1 148.501 22.004 Q 150.401 18.754 152.451 15.404 Q 154.501 12.054 156.651 8.704 Q 150.007 10.476 150.339 10.503 A 0.15 0.15 0 0 0 150.351 10.504 Q 149.551 10.504 149.551 9.654 Q 149.551 9.204 150.101 8.954 A 11.878 11.878 0 0 1 151.204 8.518 Q 151.889 8.278 152.84 7.997 A 56.768 56.768 0 0 1 152.901 7.979 Q 154.788 7.422 157.706 6.702 A 208.852 208.852 0 0 1 157.901 6.654 Q 158.351 5.954 158.726 5.354 Q 159.101 4.754 159.451 4.304 A 9.377 9.377 0 0 1 160.23 3.372 Q 160.588 3.008 160.825 2.927 A 0.391 0.391 0 0 1 160.951 2.904 Q 161.751 2.904 161.751 3.604 A 1.36 1.36 0 0 1 161.536 4.174 A 7.034 7.034 0 0 1 161.201 4.704 Q 160.651 5.504 160.151 6.354 A 170.768 170.768 0 0 0 161.501 6.122 A 313.17 313.17 0 0 0 163.151 5.829 A 20.032 20.032 0 0 1 165.445 5.566 A 34.746 34.746 0 0 1 167.601 5.504 A 33.699 33.699 0 0 1 170.598 5.626 Q 175.436 6.06 176.908 8.034 A 3.286 3.286 0 0 1 177.551 10.054 Q 177.551 11.904 176.351 13.479 A 11.741 11.741 0 0 1 173.871 15.846 A 16.034 16.034 0 0 1 173.126 16.354 Q 171.101 17.654 168.651 18.679 Q 166.201 19.704 163.701 20.454 Q 171.101 22.154 171.101 27.404 Q 171.101 30.154 169.476 32.354 A 14.25 14.25 0 0 1 165.848 35.744 A 17.757 17.757 0 0 1 165.201 36.154 Q 162.551 37.754 159.351 38.754 Q 154.323 40.301 148.009 40.651 A 68.756 68.756 0 0 1 144.201 40.754 Q 142.401 40.754 140.501 40.604 A 7.996 7.996 0 0 0 140.09 41.601 A 1.616 1.616 0 0 0 140.001 42.054 Q 140.001 42.854 139.201 42.854 Z M 0.451 38.504 L 5.401 26.054 Q 5.351 24.654 4.951 22.304 A 138.31 138.31 0 0 0 4.136 17.962 A 166.754 166.754 0 0 0 4.001 17.304 Q 3.451 14.654 2.951 12.454 Q 2.451 10.254 2.051 8.604 A 70.268 70.268 0 0 1 1.807 7.57 Q 1.703 7.106 1.668 6.897 A 1.032 1.032 0 0 1 1.651 6.754 A 0.415 0.415 0 0 1 2.184 6.404 A 1.693 1.693 0 0 1 2.201 6.404 A 2.367 2.367 0 0 1 2.864 6.468 A 0.283 0.283 0 0 1 2.976 6.529 Q 3.101 6.654 3.201 7.004 Q 4.051 10.054 4.701 12.629 A 115.551 115.551 0 0 1 5.26 14.931 Q 5.5 15.973 5.651 16.754 Q 6.051 18.654 6.351 20.654 Q 6.651 22.654 6.951 24.554 Q 13.351 18.804 20.026 13.304 Q 26.701 7.804 33.551 2.804 Q 33.801 2.604 34.051 2.454 Q 34.301 2.304 34.651 2.304 Q 35.501 2.304 35.501 3.204 A 0.889 0.889 0 0 1 35.106 3.81 A 3.36 3.36 0 0 1 34.851 4.004 Q 31.051 6.654 27.276 9.604 Q 23.501 12.554 19.951 15.504 Q 16.601 18.304 13.376 21.104 Q 10.151 23.904 7.001 26.604 A 86.964 86.964 0 0 1 6.632 27.566 A 210.959 210.959 0 0 1 6.126 28.854 Q 5.551 30.304 4.901 31.979 Q 4.251 33.654 3.626 35.279 A 354.217 354.217 0 0 1 2.773 37.477 A 223.267 223.267 0 0 1 2.526 38.104 A 98.103 98.103 0 0 1 2.12 39.116 A 24.707 24.707 0 0 1 1.851 39.754 A 1.885 1.885 0 0 1 1.464 40.417 A 0.599 0.599 0 0 1 1.451 40.429 Q 1.251 40.604 1.001 40.604 Q 0.001 40.604 0.001 39.754 Q 0.001 39.554 0.151 39.204 L 0.451 38.504 Z M 77.251 55.604 L 77.051 55.604 A 5.503 5.503 0 0 1 76.953 55.603 A 3.509 3.509 0 0 1 73.901 54.029 Q 72.851 52.454 72.851 50.454 A 33.47 33.47 0 0 1 72.976 47.529 Q 73.101 46.104 73.351 44.704 A 0.943 0.943 0 0 1 73.794 43.957 A 0.606 0.606 0 0 1 74.051 43.904 Q 75.051 43.904 75.051 44.954 A 3.605 3.605 0 0 1 74.936 45.708 A 9.504 9.504 0 0 1 74.901 45.854 Q 74.751 46.354 74.751 46.604 Q 74.651 47.404 74.601 48.279 Q 74.551 49.154 74.551 50.054 Q 74.551 52.673 75.827 53.556 A 2.79 2.79 0 0 0 77.451 54.004 A 2.088 2.088 0 0 0 78.621 53.554 A 5.886 5.886 0 0 0 79.426 52.854 Q 80.551 51.704 81.451 50.354 Q 83.551 47.204 85.901 40.404 L 87.551 35.654 Q 83.501 40.504 80.251 40.504 Q 78.251 40.504 77.151 39.004 A 5.927 5.927 0 0 1 76.054 35.554 A 8.228 8.228 0 0 1 76.051 35.354 A 11.629 11.629 0 0 1 76.703 31.638 Q 77.221 30.098 78.153 28.461 A 27.355 27.355 0 0 1 79.851 25.854 A 23.381 23.381 0 0 1 81.901 23.442 Q 84.396 20.91 86.835 20.421 A 5.916 5.916 0 0 1 88.001 20.304 A 3.803 3.803 0 0 1 91.622 22.585 A 7.519 7.519 0 0 1 92.151 24.004 A 23.7 23.7 0 0 1 93.075 22.005 Q 94.448 19.404 95.651 19.404 Q 96.251 19.404 96.251 20.404 A 6.592 6.592 0 0 1 95.952 22.232 Q 95.507 23.752 94.401 25.754 A 243.554 243.554 0 0 0 93.567 27.121 A 412.82 412.82 0 0 0 93.426 27.354 A 46.908 46.908 0 0 0 92.493 28.976 A 70.957 70.957 0 0 0 92.151 29.604 L 90.451 33.754 Q 89.951 34.954 89.201 36.779 Q 88.451 38.604 87.501 41.054 A 139.149 139.149 0 0 1 86.445 43.847 A 88.694 88.694 0 0 1 85.476 46.229 A 58.477 58.477 0 0 1 84.491 48.43 A 32.157 32.157 0 0 1 83.801 49.804 Q 80.551 55.604 77.251 55.604 Z M 205.301 55.604 L 205.101 55.604 A 5.503 5.503 0 0 1 205.003 55.603 A 3.509 3.509 0 0 1 201.951 54.029 Q 200.901 52.454 200.901 50.454 A 33.47 33.47 0 0 1 201.026 47.529 Q 201.151 46.104 201.401 44.704 A 0.943 0.943 0 0 1 201.844 43.957 A 0.606 0.606 0 0 1 202.101 43.904 Q 203.101 43.904 203.101 44.954 A 3.605 3.605 0 0 1 202.986 45.708 A 9.504 9.504 0 0 1 202.951 45.854 Q 202.801 46.354 202.801 46.604 Q 202.701 47.404 202.651 48.279 Q 202.601 49.154 202.601 50.054 Q 202.601 52.673 203.877 53.556 A 2.79 2.79 0 0 0 205.501 54.004 A 2.088 2.088 0 0 0 206.671 53.554 A 5.886 5.886 0 0 0 207.476 52.854 Q 208.601 51.704 209.501 50.354 Q 211.601 47.204 213.951 40.404 L 215.601 35.654 Q 211.551 40.504 208.301 40.504 Q 206.301 40.504 205.201 39.004 A 5.927 5.927 0 0 1 204.104 35.554 A 8.228 8.228 0 0 1 204.101 35.354 A 11.629 11.629 0 0 1 204.753 31.638 Q 205.271 30.098 206.203 28.461 A 27.355 27.355 0 0 1 207.901 25.854 A 23.381 23.381 0 0 1 209.951 23.442 Q 212.446 20.91 214.885 20.421 A 5.916 5.916 0 0 1 216.051 20.304 A 3.803 3.803 0 0 1 219.672 22.585 A 7.519 7.519 0 0 1 220.201 24.004 A 23.7 23.7 0 0 1 221.125 22.005 Q 222.498 19.404 223.701 19.404 Q 224.301 19.404 224.301 20.404 A 6.592 6.592 0 0 1 224.002 22.232 Q 223.557 23.752 222.451 25.754 A 243.554 243.554 0 0 0 221.617 27.121 A 412.82 412.82 0 0 0 221.476 27.354 A 46.908 46.908 0 0 0 220.543 28.976 A 70.957 70.957 0 0 0 220.201 29.604 L 218.501 33.754 Q 218.001 34.954 217.251 36.779 Q 216.501 38.604 215.551 41.054 A 139.149 139.149 0 0 1 214.495 43.847 A 88.694 88.694 0 0 1 213.526 46.229 A 58.477 58.477 0 0 1 212.541 48.43 A 32.157 32.157 0 0 1 211.851 49.804 Q 208.601 55.604 205.301 55.604 Z M 144.551 39.154 A 59.48 59.48 0 0 0 150.616 38.857 Q 154.85 38.422 158.501 37.354 Q 161.351 36.504 163.876 35.054 A 14.891 14.891 0 0 0 167.242 32.468 A 12.255 12.255 0 0 0 167.976 31.629 Q 169.551 29.654 169.551 27.354 A 4.26 4.26 0 0 0 167.764 23.899 Q 166.947 23.253 165.755 22.74 A 13.306 13.306 0 0 0 165.301 22.554 A 19.319 19.319 0 0 0 159.358 21.377 A 23.294 23.294 0 0 0 158.301 21.354 Q 157.001 21.354 155.801 21.504 A 52.917 52.917 0 0 1 154.85 21.743 Q 154.473 21.833 154.346 21.85 A 0.366 0.366 0 0 1 154.301 21.854 Q 153.551 21.854 153.551 21.004 A 0.667 0.667 0 0 1 154.351 20.304 A 27.039 27.039 0 0 0 158.69 19.931 Q 162.087 19.378 166.001 18.004 Q 168.401 17.154 170.676 15.979 A 16.337 16.337 0 0 0 173.533 14.135 A 12.06 12.06 0 0 0 174.426 13.329 A 5.109 5.109 0 0 0 175.702 11.392 A 3.652 3.652 0 0 0 175.901 10.204 A 2.082 2.082 0 0 0 174.746 8.383 Q 172.99 7.316 168.566 7.214 A 41.919 41.919 0 0 0 167.601 7.204 Q 165.651 7.204 163.526 7.454 Q 161.401 7.704 159.051 8.204 Q 153.101 17.404 148.601 25.104 A 231.271 231.271 0 0 0 145.567 30.451 Q 144.304 32.75 143.2 34.901 A 139.559 139.559 0 0 0 141.151 39.054 Q 141.551 39.104 142.151 39.129 A 29.666 29.666 0 0 0 142.977 39.147 Q 143.595 39.154 144.551 39.154 Z M 193.651 4.854 L 190.151 9.104 A 63.635 63.635 0 0 0 185.562 15.37 A 54.411 54.411 0 0 0 182.726 20.354 A 66.139 66.139 0 0 0 179.191 28.799 A 59.41 59.41 0 0 0 178.251 31.854 Q 177.801 33.504 177.801 34.954 A 6.076 6.076 0 0 0 178.046 36.791 Q 178.648 38.675 180.725 38.751 A 4.845 4.845 0 0 0 180.901 38.754 Q 182.001 38.754 183.151 38.104 Q 184.225 37.544 184.383 37.506 A 0.083 0.083 0 0 1 184.401 37.504 A 0.63 0.63 0 0 1 184.999 38.263 A 2.217 2.217 0 0 1 185.001 38.354 Q 185.001 39.104 184.451 39.504 Q 182.751 40.504 180.801 40.504 A 5.127 5.127 0 0 1 178.449 40.001 A 3.817 3.817 0 0 1 177.276 39.079 A 5.203 5.203 0 0 1 176.094 36.152 A 8.089 8.089 0 0 1 176.051 35.304 A 13.771 13.771 0 0 1 176.263 33.038 A 24.082 24.082 0 0 1 176.651 31.204 A 40.203 40.203 0 0 1 177.643 27.983 Q 178.265 26.211 179.109 24.24 A 81.978 81.978 0 0 1 180.201 21.804 Q 182.151 17.754 184.401 13.829 Q 186.651 9.904 189.351 6.104 A 62.056 62.056 0 0 1 190.872 4.031 Q 193.251 0.938 194.618 0.221 A 1.617 1.617 0 0 1 195.351 0.004 A 1.703 1.703 0 0 1 196.201 0.168 A 0.479 0.479 0 0 1 196.451 0.604 A 1.688 1.688 0 0 1 196.23 1.284 Q 195.664 2.41 193.651 4.854 Z M 119.101 30.354 L 115.801 29.354 A 4.652 4.652 0 0 1 114.369 28.652 A 2.416 2.416 0 0 1 114.001 28.304 Q 113.451 27.654 113.451 26.854 Q 113.451 25.354 114.576 24.154 Q 115.701 22.954 117.401 22.254 Q 119.101 21.554 120.701 21.554 Q 122.301 21.554 123.501 22.329 Q 124.701 23.104 124.701 24.404 Q 124.701 25.154 124.276 25.804 Q 123.851 26.454 123.301 26.454 Q 122.451 26.454 122.451 25.754 Q 122.451 25.504 122.726 25.129 Q 123.001 24.754 123.001 24.404 A 1.389 1.389 0 0 0 121.694 22.995 A 4.809 4.809 0 0 0 120.701 22.904 Q 119.451 22.904 118.226 23.429 Q 117.001 23.954 116.201 24.804 Q 115.401 25.654 115.401 26.654 A 1.259 1.259 0 0 0 116.088 27.688 Q 116.543 27.985 117.299 28.222 A 8.806 8.806 0 0 0 117.401 28.254 L 120.601 29.254 A 4.927 4.927 0 0 1 122.062 29.943 A 2.386 2.386 0 0 1 122.601 30.479 Q 123.151 31.254 123.151 32.204 A 4.543 4.543 0 0 1 122.398 34.6 Q 121.862 35.467 120.945 36.355 A 14.313 14.313 0 0 1 120.401 36.854 A 20.554 20.554 0 0 1 117.649 38.937 Q 114.654 40.804 111.801 40.804 A 5.131 5.131 0 0 1 110.295 40.614 A 1.625 1.625 0 0 1 109.001 38.954 A 3.907 3.907 0 0 1 109.801 36.69 A 5.935 5.935 0 0 1 109.826 36.654 Q 110.651 35.504 111.801 34.554 A 12.589 12.589 0 0 1 113.571 33.307 A 8.109 8.109 0 0 1 113.951 33.104 Q 114.251 32.954 114.776 32.804 Q 115.301 32.654 115.651 32.654 Q 116.051 32.654 116.051 32.954 A 0.631 0.631 0 0 1 115.688 33.393 A 2.825 2.825 0 0 1 115.501 33.504 A 11.997 11.997 0 0 0 112.975 35.088 A 8.273 8.273 0 0 0 111.926 36.129 A 8.058 8.058 0 0 0 111.011 37.432 A 2.544 2.544 0 0 0 110.651 38.604 A 0.866 0.866 0 0 0 111.505 39.444 A 3.559 3.559 0 0 0 112.201 39.504 Q 113.501 39.504 115.026 38.854 Q 116.551 38.204 117.926 37.154 Q 119.301 36.104 120.201 34.904 A 4.403 4.403 0 0 0 121.041 33.178 A 2.837 2.837 0 0 0 121.101 32.604 Q 121.101 31.854 120.626 31.254 Q 120.151 30.654 119.101 30.354 Z M 16.151 34.354 A 7.32 7.32 0 0 0 16.351 36.151 Q 17.051 38.904 20.201 38.904 Q 22.351 38.904 24.301 37.704 Q 26.251 36.504 27.801 34.554 Q 29.351 32.604 30.251 30.279 Q 31.151 27.954 31.151 25.704 Q 31.151 24.004 30.301 22.604 Q 29.451 21.204 27.601 21.204 A 7.03 7.03 0 0 0 27.208 21.215 A 7.896 7.896 0 0 0 23.476 22.454 Q 21.451 23.704 19.801 25.679 Q 18.151 27.654 17.151 29.954 Q 16.151 32.254 16.151 34.354 Z M 187.501 34.354 A 7.32 7.32 0 0 0 187.701 36.151 Q 188.401 38.904 191.551 38.904 Q 193.701 38.904 195.651 37.704 Q 197.601 36.504 199.151 34.554 Q 200.701 32.604 201.601 30.279 Q 202.501 27.954 202.501 25.704 Q 202.501 24.004 201.651 22.604 Q 200.801 21.204 198.951 21.204 A 7.03 7.03 0 0 0 198.558 21.215 A 7.896 7.896 0 0 0 194.826 22.454 Q 192.801 23.704 191.151 25.679 Q 189.501 27.654 188.501 29.954 Q 187.501 32.254 187.501 34.354 Z M 89.551 30.304 L 91.001 26.604 A 1.364 1.364 0 0 1 90.559 25.812 A 3.779 3.779 0 0 1 90.501 25.554 A 13.892 13.892 0 0 0 90.079 23.95 Q 89.789 23.097 89.451 22.704 Q 88.851 22.004 87.851 22.004 A 3.76 3.76 0 0 0 86.191 22.456 A 7.878 7.878 0 0 0 85.201 23.054 Q 83.701 24.104 82.351 25.629 Q 81.001 27.154 80.201 28.604 Q 78.466 31.569 77.985 33.932 A 8.65 8.65 0 0 0 77.801 35.654 Q 77.801 38.754 80.251 38.754 A 3.586 3.586 0 0 0 81.833 38.32 Q 84.795 36.839 89.551 30.304 Z M 217.601 30.304 L 219.051 26.604 A 1.364 1.364 0 0 1 218.609 25.812 A 3.779 3.779 0 0 1 218.551 25.554 A 13.892 13.892 0 0 0 218.129 23.95 Q 217.839 23.097 217.501 22.704 Q 216.901 22.004 215.901 22.004 A 3.76 3.76 0 0 0 214.241 22.456 A 7.878 7.878 0 0 0 213.251 23.054 Q 211.751 24.104 210.401 25.629 Q 209.051 27.154 208.251 28.604 Q 206.516 31.569 206.035 33.932 A 8.65 8.65 0 0 0 205.851 35.654 Q 205.851 38.754 208.301 38.754 A 3.586 3.586 0 0 0 209.883 38.32 Q 212.845 36.839 217.601 30.304 Z M 20.151 37.304 Q 20.451 37.304 20.501 37.254 Q 22.451 37.004 24.101 35.854 A 11.776 11.776 0 0 0 26.976 32.979 Q 28.201 31.254 28.851 29.254 Q 29.501 27.254 29.501 25.304 Q 29.501 24.154 28.851 23.504 Q 28.201 22.854 27.201 22.854 A 4.532 4.532 0 0 0 25.026 23.474 A 7.934 7.934 0 0 0 24.126 24.054 A 15.261 15.261 0 0 0 21.3 26.819 A 19.267 19.267 0 0 0 21.076 27.104 Q 19.651 28.954 18.751 30.979 A 10.968 10.968 0 0 0 17.978 33.341 A 6.694 6.694 0 0 0 17.851 34.604 Q 17.851 37.276 20.104 37.303 A 3.86 3.86 0 0 0 20.151 37.304 Z M 191.501 37.304 Q 191.801 37.304 191.851 37.254 Q 193.801 37.004 195.451 35.854 A 11.776 11.776 0 0 0 198.326 32.979 Q 199.551 31.254 200.201 29.254 Q 200.851 27.254 200.851 25.304 Q 200.851 24.154 200.201 23.504 Q 199.551 22.854 198.551 22.854 A 4.532 4.532 0 0 0 196.376 23.474 A 7.934 7.934 0 0 0 195.476 24.054 A 15.261 15.261 0 0 0 192.65 26.819 A 19.267 19.267 0 0 0 192.426 27.104 Q 191.001 28.954 190.101 30.979 A 10.968 10.968 0 0 0 189.328 33.341 A 6.694 6.694 0 0 0 189.201 34.604 Q 189.201 37.276 191.454 37.303 A 3.86 3.86 0 0 0 191.501 37.304 Z M 108.151 3.104 L 108.101 3.104 Q 108.151 3.254 108.151 3.854 A 7.902 7.902 0 0 1 107.679 6.42 Q 107.277 7.586 106.534 8.878 A 20.976 20.976 0 0 1 106.001 9.754 A 23.448 23.448 0 0 1 103.984 12.54 A 14.727 14.727 0 0 1 101.801 14.654 Q 101.601 14.854 101.201 14.854 Q 100.351 14.854 100.351 14.154 A 1.127 1.127 0 0 1 100.543 13.7 A 4.864 4.864 0 0 1 100.601 13.604 A 55.778 55.778 0 0 0 101.731 12.343 A 98.172 98.172 0 0 0 102.176 11.829 Q 103.101 10.754 104.251 9.254 A 26.393 26.393 0 0 0 105.239 7.506 Q 105.645 6.708 105.848 6.107 A 3.257 3.257 0 0 0 106.051 5.104 A 1.137 1.137 0 0 0 105.895 4.678 A 6.893 6.893 0 0 0 105.651 4.254 Q 105.101 3.854 105.101 3.104 A 1.769 1.769 0 0 1 105.441 1.929 A 1.378 1.378 0 0 1 106.551 1.504 A 1.534 1.534 0 0 1 108.098 2.863 A 3.753 3.753 0 0 1 108.151 3.104 Z"/></g></svg>