<svg width="1em" height="1em" viewBox="0 0 22.339 25.244" xmlns="http://www.w3.org/2000/svg">
  <g id="svgGroup" stroke-linecap="round" fill-rule="evenodd" font-size="9pt" stroke="currentColor"
    stroke-width="0.25mm" fill="currentColor" style="stroke:currentColor;stroke-width:0.25mm;fill:currentColor">
    <path
      d="M 1.343 11.89 L 1.587 9.399 L 5.127 9.155 L 5.444 2.148 L 10.645 1.196 L 9.351 8.789 L 12.5 8.545 L 13.477 0 L 19.678 0.854 L 17.749 8.154 L 22.339 7.739 L 21.387 11.792 L 16.748 11.841 L 15.845 15.137 L 20.093 14.941 L 19.043 19.336 L 14.746 19.141 L 13.086 25.244 L 10.596 24.902 L 11.279 18.994 L 7.642 18.799 L 6.592 25.146 L 4.541 25.049 L 4.785 18.652 L 0 18.384 L 0.244 15.747 L 4.883 15.552 L 5.029 11.89 L 1.343 11.89 Z M 8.838 11.841 L 8.228 15.454 L 11.694 15.308 L 12.085 11.841 L 8.838 11.841 Z" />
  </g>
</svg>
