<svg width="32" height="32" viewBox="0 0 512 512" xmlns="http://www.w3.org/2000/svg">
  <style>
    @media (prefers-color-scheme: dark) {
      .a {
        fill: #f0f0f0;
      }
    }
  </style>
  <path class="a"
    d="M196.408 441C189.112 441 181.36 439.784 173.152 437.352C170.416 436.44 166.16 434.92 160.384 432.792C154.608 430.968 149.288 428.536 144.424 425.496C139.56 422.76 136.824 419.872 136.216 416.832L137.128 415.464L133.936 415.92V414.552C126.944 406.648 123.448 397.376 123.448 386.736C123.448 385.52 123.448 384.456 123.448 383.544C123.448 382.632 123.6 381.568 123.904 380.352C124.512 376.4 125.272 372.296 126.184 368.04C127.096 364.088 127.248 360.136 126.64 356.184L128.008 354.816H131.2V356.184H132.112C131.808 357.704 131.656 359.072 131.656 360.288C131.656 361.504 131.656 362.568 131.656 363.48C132.568 373.512 135.456 383.848 140.32 394.488C145.184 405.128 151.872 413.944 160.384 420.936C169.2 428.232 179.84 431.88 192.304 431.88H194.584L196.864 431.424C198.384 430.512 200.056 429.904 201.88 429.6C203.704 429.296 205.528 428.992 207.352 428.688L223.312 420.48C226.656 418.96 229.696 417.44 232.432 415.92C235.168 414.4 237.296 413.032 238.816 411.816C245.2 406.648 250.368 401.936 254.32 397.68C258.272 393.728 261.768 389.624 264.808 385.368C268.152 380.504 271.192 375.336 273.928 369.864C276.968 364.696 280.008 359.528 283.048 354.36C290.952 339.768 297.184 323.808 301.744 306.48C306.304 289.152 309.648 272.28 311.776 255.864C312.384 251 312.688 246.136 312.688 241.272C312.992 236.104 313.296 231.088 313.6 226.224C311.168 227.44 309.496 228.656 308.584 229.872C302.2 234.736 296.576 240.664 291.712 247.656C283.808 258.296 274.84 268.024 264.808 276.84C254.776 285.656 244.896 294.624 235.168 303.744C228.48 310.128 221.64 316.512 214.648 322.896C207.656 329.28 199.448 333.232 190.024 334.752C189.416 335.056 188.2 335.208 186.376 335.208C182.424 335.208 177.56 333.84 171.784 331.104C166.312 328.672 161.296 325.48 156.736 321.528C152.48 317.272 150.2 313.168 149.896 309.216C149.592 303.136 151.264 295.536 154.912 286.416C158.56 277.296 163.424 267.568 169.504 257.232C175.888 246.592 182.576 236.104 189.568 225.768C196.864 215.432 203.552 206.008 209.632 197.496C216.016 188.984 221.032 182.144 224.68 176.976C227.416 173.328 230.912 168.16 235.168 161.472C239.728 154.784 244.288 147.488 248.848 139.584C253.408 131.68 257.208 124.232 260.248 117.24C263.592 109.944 265.264 104.168 265.264 99.912C265.264 96.264 264.048 93.984 261.616 93.072C259.184 91.856 256.144 91.248 252.496 91.248C247.632 91.248 242.768 92.008 237.904 93.528C233.04 95.048 228.176 96.568 223.312 98.088C202.032 105.384 183.032 114.504 166.312 125.448C149.896 136.088 134.696 148.248 120.712 161.928C106.728 175.304 92.592 189.896 78.304 205.704C72.528 212.392 66.904 219.84 61.432 228.048C55.96 235.952 53.224 244.464 53.224 253.584C53.224 260.272 54.744 264.528 57.784 266.352C60.824 268.176 64.624 269.24 69.184 269.544C70.704 269.848 72.224 270 73.744 270C75.264 270 76.784 270 78.304 270C81.648 270 84.84 269.544 87.88 268.632C91.224 267.416 94.568 266.808 97.912 266.808C98.52 266.808 99.888 267.112 102.016 267.72C104.448 268.024 105.816 268.784 106.12 270C106.424 271.52 104.144 272.888 99.28 274.104C94.416 275.016 89.4 275.776 84.232 276.384C79.064 276.992 75.72 277.296 74.2 277.296C70.248 277.296 64.928 276.232 58.24 274.104C51.856 271.976 45.776 269.088 40 265.44C34.528 261.488 31.336 257.08 30.424 252.216H28.144C28.448 249.48 28.6 247.2 28.6 245.376C28.6 243.248 28.752 241.576 29.056 240.36C29.056 238.84 29.208 237.624 29.512 236.712C29.512 235.496 29.664 234.28 29.968 233.064C31.184 229.416 34.072 224.096 38.632 217.104C39.848 215.28 40.912 213.152 41.824 210.72C43.04 207.984 45.016 206.464 47.752 206.16V202.968L51.4 201.144L52.312 201.6V200.688L52.768 200.232L50.032 197.952C51.552 196.432 52.768 195.064 53.68 193.848C54.896 192.632 56.112 191.264 57.328 189.744C59.456 186.4 61.888 184.576 64.624 184.272L64.168 181.536L71.92 176.976V175.608C71.92 173.784 72.984 172.112 75.112 170.592L76.48 169.68L78.304 167.856C89.856 156.304 100.952 146.424 111.592 138.216C122.232 129.704 133.632 122.104 145.792 115.416C157.952 108.424 171.632 101.888 186.832 95.808C199.6 90.64 211.304 87.448 221.944 86.232C232.888 84.712 239.728 83.952 242.464 83.952C252.8 83.952 262.224 86.384 270.736 91.248C279.248 96.112 283.504 104.472 283.504 116.328C283.504 123.928 281.832 131.984 278.488 140.496C275.144 149.008 271.192 156.304 266.632 162.384C262.376 167.552 256.6 175.304 249.304 185.64C242.312 195.672 234.56 207.072 226.048 219.84C217.84 232.304 209.936 245.072 202.336 258.144C195.04 270.912 188.96 282.768 184.096 293.712C179.232 304.352 176.8 312.712 176.8 318.792C176.8 320.92 177.104 322.896 177.712 324.72C178.624 326.544 180.144 327.456 182.272 327.456C184.704 327.456 187.136 326.696 189.568 325.176C200.208 320.008 209.784 313.472 218.296 305.568C226.808 297.664 234.864 289.456 242.464 280.944C252.496 270.304 263.136 260.424 274.384 251.304C285.936 241.88 296.424 231.544 305.848 220.296C308.28 217.256 310.56 214.216 312.688 211.176C315.12 207.832 317.4 204.64 319.528 201.6C321.96 198.256 324.24 194.456 326.368 190.2C328.8 185.944 332.296 183.816 336.856 183.816C339.592 183.816 342.328 184.728 345.064 186.552C348.104 188.072 349.624 190.352 349.624 193.392V195.216C349.624 195.52 348.712 197.344 346.888 200.688C345.368 203.728 343.696 206.92 341.872 210.264C340.352 213.304 339.288 215.128 338.68 215.736C337.464 217.56 335.64 219.232 333.208 220.752C331.08 222.272 329.712 223.944 329.104 225.768C328.496 226.984 328.04 228.2 327.736 229.416C327.736 230.328 327.736 231.392 327.736 232.608C327.736 238.384 327.432 244.92 326.824 252.216C326.216 259.208 325.608 265.288 325 270.456C324.392 276.84 323.632 283.224 322.72 289.608C321.808 295.688 320.592 301.768 319.072 307.848C317.552 313.32 316.184 318.64 314.968 323.808C314.056 328.672 313.144 333.536 312.232 338.4C311.016 343.264 309.648 348.128 308.128 352.992C306.608 357.856 304.632 362.872 302.2 368.04C301.288 370.168 299.464 373.816 296.728 378.984C294.296 384.152 292.472 387.8 291.256 389.928C289.736 392.664 287.912 395.248 285.784 397.68C283.96 400.416 281.984 403 279.856 405.432C271.04 416.68 259.184 425.344 244.288 431.424C229.392 437.808 213.432 441 196.408 441Z"
    fill="#0f0f0f" />
  <path class="a"
    d="M374.266 338.4C371.226 338.4 368.642 337.944 366.514 337.032C364.69 336.424 363.018 335.816 361.498 335.208C360.586 334.6 359.522 333.84 358.306 332.928C357.394 332.016 356.33 331.56 355.114 331.56C354.81 330.952 354.202 330.192 353.29 329.28L351.466 327.912C348.73 325.784 346.906 323.2 345.994 320.16C345.082 317.12 344.626 313.624 344.626 309.672C344.626 304.504 345.842 299.792 348.274 295.536C350.706 291.28 352.682 286.72 354.202 281.856C354.81 280.336 355.114 278.816 355.114 277.296C355.114 275.776 355.266 274.256 355.57 272.736C356.178 270.608 357.09 268.632 358.306 266.808C359.522 264.984 360.738 263.16 361.954 261.336C368.946 249.176 377.306 239.448 387.034 232.152C396.762 224.552 408.466 218.168 422.146 213C423.666 212.392 426.25 211.784 429.898 211.176C433.85 210.568 436.586 210.264 438.106 210.264C440.538 210.264 442.818 210.72 444.946 211.632C447.074 212.24 449.202 212.848 451.33 213.456C451.938 213.76 452.546 214.064 453.154 214.368C454.066 214.368 455.13 214.368 456.346 214.368L455.434 215.736C458.17 216.952 460.298 218.624 461.818 220.752C463.642 222.88 465.618 224.856 467.746 226.68L471.85 230.328C473.066 231.544 473.826 233.216 474.13 235.344C474.738 237.168 475.042 238.688 475.042 239.904C475.65 244.16 475.346 248.264 474.13 252.216C473.218 255.864 472.002 259.36 470.482 262.704C468.658 265.744 466.682 268.936 464.554 272.28C462.426 275.32 460.146 278.36 457.714 281.4C455.586 284.44 453.458 287.48 451.33 290.52C449.202 293.56 446.77 296.448 444.034 299.184C443.426 299.792 441.906 301.312 439.474 303.744C437.042 305.872 434.61 308.152 432.178 310.584C430.05 313.016 428.834 314.536 428.53 315.144C425.794 316.056 423.514 317.424 421.69 319.248L418.954 321.984C413.482 327.456 406.49 331.56 397.978 334.296C389.466 337.032 381.562 338.4 374.266 338.4ZM376.546 329.736C376.85 329.432 377.306 329.28 377.914 329.28L382.018 327.912C383.538 327.304 384.906 326.848 386.122 326.544C387.642 326.24 388.554 325.936 388.858 325.632C390.074 325.024 392.506 323.504 396.154 321.072C400.106 318.64 403.754 316.056 407.098 313.32C410.442 310.584 411.962 308.608 411.658 307.392C413.786 306.48 416.37 304.048 419.41 300.096C422.754 296.144 425.794 291.888 428.53 287.328C431.57 282.768 433.546 279.576 434.458 277.752C435.066 276.232 435.674 274.864 436.282 273.648C436.89 272.432 437.802 271.216 439.018 270C439.018 268.48 439.322 267.112 439.93 265.896C440.842 264.68 441.298 263.616 441.298 262.704C441.906 262.096 442.21 261.184 442.21 259.968C442.514 258.448 442.818 257.384 443.122 256.776C443.73 254.344 444.186 252.824 444.49 252.216L444.034 251.76C444.338 251.152 444.49 250.544 444.49 249.936C444.794 249.024 445.098 248.416 445.402 248.112V246.744C445.402 245.224 445.554 243.856 445.858 242.64C446.162 241.12 446.162 239.6 445.858 238.08C446.466 236.864 446.77 235.8 446.77 234.888C446.77 233.976 446.618 233.064 446.314 232.152C446.314 231.24 446.162 230.328 445.858 229.416L446.314 228.96C446.01 226.224 445.098 223.944 443.578 222.12C442.058 220.296 440.082 219.384 437.65 219.384C430.05 219.384 423.362 221.36 417.586 225.312C411.81 229.264 406.186 233.672 400.714 238.536C398.586 240.056 396.61 241.576 394.786 243.096C393.266 244.616 391.746 246.44 390.226 248.568C390.226 248.872 390.074 249.176 389.77 249.48C390.378 248.872 391.29 248.416 392.506 248.112C395.242 245.984 398.738 244.92 402.994 244.92C404.514 244.92 407.554 246.288 412.114 249.024C416.674 251.76 418.954 254.344 418.954 256.776V259.056C416.826 258.144 415.61 257.536 415.306 257.232L413.482 256.32C412.266 255.712 410.898 255.408 409.378 255.408C404.514 255.408 399.346 257.688 393.874 262.248C388.706 266.808 384.45 271.216 381.106 275.472C378.978 277.904 377.002 280.336 375.178 282.768C373.354 284.896 372.594 287.936 372.898 291.888C374.418 292.8 375.482 294.472 376.09 296.904C375.178 297.208 374.266 297.36 373.354 297.36C371.834 297.36 370.314 296.6 368.794 295.08C367.882 296.296 367.122 297.968 366.514 300.096C365.906 302.224 365.298 304.048 364.69 305.568L363.778 306.936C363.778 308.152 363.626 309.368 363.322 310.584C363.322 311.8 363.474 313.016 363.778 314.232C364.082 318.792 365.146 322.592 366.97 325.632C368.794 328.368 371.986 329.736 376.546 329.736Z"
    fill="#0f0f0f" />

</svg>
